<?xml version="1.0" encoding="utf-8"?>
<!-- Generator: Adobe Illustrator 24.1.1, SVG Export Plug-In . SVG Version: 6.00 Build 0)  -->
<svg version="1.1" id="레이어_1" xmlns="http://www.w3.org/2000/svg" xmlns:xlink="http://www.w3.org/1999/xlink" x="0px"
	 y="0px" viewBox="0 0 74 74" style="enable-background:new 0 0 74 74;" xml:space="preserve">
<style type="text/css">
	.st0{fill:#FFFFFF;stroke:#262C32;stroke-width:2.5;}
	.st1{fill:#FFFFFF;}
</style>
<g>
	<g>
		<path class="st0" d="M34.5,39.1c1.8-1.8,1.8-4.7,0-6.6c-1.8-1.8-4.7-1.8-6.6,0l-9.7,9.7l6.6,6.6L34.5,39.1z"/>
		<g>
			<path class="st0" d="M8.2,58.2l12.9-12.9l-3-2.9L4.9,55.5c-1.8,1.8-1.8,4.7,0,6.6c0.7,0.7,1.6,1.1,2.4,1.3
				C6.5,61.7,6.7,59.6,8.2,58.2z"/>
			<path class="st0" d="M11.5,62.1l13.3-13.3l-3.7-3.7l-12.9,13c-1.4,1.4-1.7,3.5-0.9,5.3C8.7,63.7,10.3,63.3,11.5,62.1z"/>
		</g>
		<path class="st0" d="M18.2,42.3L4.9,55.5c-1.8,1.8-1.8,4.7,0,6.6c1.8,1.8,4.7,1.8,6.6,0l13.3-13.3L18.2,42.3z"/>
	</g>
	<path class="st0" d="M26.6,11c1.1-1.1,2.1-2,3.3-2.6c1.2-0.8,2.4-1.4,3.7-2c1.3-0.5,2.5-0.9,3.8-1.2s2.6-0.4,3.9-0.4
		c1.3,0,2.6,0.1,3.9,0.4c1.3,0.3,2.6,0.7,3.8,1.2c1.3,0.5,2.5,1.2,3.7,2C53.9,9.2,55,10.1,56,11c1.1,1.1,2,2.1,2.6,3.3
		c0.8,1.2,1.4,2.4,2,3.7c0.5,1.3,0.9,2.5,1.2,3.8s0.4,2.6,0.4,3.9c0,1.3-0.1,2.6-0.4,3.9c-0.3,1.3-0.7,2.6-1.2,3.8
		c-0.5,1.3-1.2,2.5-2,3.7c-0.8,1.2-1.7,2.2-2.6,3.3c-1.1,1.1-2.1,2-3.3,2.6c-1.2,0.8-2.4,1.4-3.7,2c-1.3,0.5-2.5,0.9-3.8,1.2
		c-1.3,0.3-2.6,0.4-3.9,0.4c-1.3,0-2.6-0.1-3.9-0.4s-2.6-0.7-3.8-1.2c-1.3-0.5-2.5-1.2-3.7-2c-1.2-0.8-2.2-1.7-3.3-2.6
		c-1.1-1.1-2-2.1-2.6-3.3c-0.8-1.2-1.4-2.4-2-3.7c-0.5-1.3-0.9-2.5-1.2-3.8c-0.3-1.3-0.4-2.6-0.4-3.9c0-1.3,0.1-2.6,0.4-3.9"/>
	<path class="st0" d="M22,17.8c0.5-1.3,1.2-2.5,2-3.7"/>
	<g>
		<path class="st1" d="M41.2,14.9c1.6-1.6,3.5-2.8,5.5-3.5c-5.4-2-11.8-0.9-16.2,3.5c-6,6-6,15.6,0,21.7c4.3,4.3,10.8,5.5,16.2,3.5
			c-2-0.8-3.9-2-5.5-3.5C35.1,30.6,35.1,20.8,41.2,14.9z"/>
		<path class="st1" d="M52.2,14.9c-1.6-1.6-3.5-2.8-5.5-3.5c-2,0.8-3.9,2-5.5,3.5c-6,6-6,15.6,0,21.7c1.6,1.6,3.5,2.8,5.5,3.5
			c2-0.8,3.9-2,5.5-3.5C58.1,30.6,58.1,20.8,52.2,14.9z"/>
	</g>
	<path class="st0" d="M52.2,36.6c-6,6-15.6,6-21.7,0s-6-15.6,0-21.7s15.6-6,21.7,0C58.1,20.8,58.1,30.6,52.2,36.6z"/>
	<path class="st0" d="M41.3,15.5c2.6,0,5.3,1.1,7.2,3c2,2,3,4.6,3,7.2"/>
</g>
<g>
	<g>
		<path class="st0" d="M60.3,34.6c0,5.5-4.5,9.9-9.9,9.9c-5.5,0-9.9-4.5-9.9-9.9c0-5.5,4.5-9.9,9.9-9.9C56,24.8,60.3,29.3,60.3,34.6
			z"/>
		<g>
			<path class="st1" d="M53.4,45.7H40.8c-5.4,0-9.7,4.3-9.7,9.7V70h7.4h5.3V55.4C43.7,50,48,45.7,53.4,45.7z"/>
			<path class="st1" d="M60.2,45.7h-6.8c-5.4,0-9.7,4.3-9.7,9.7V70h7.2h11.7h7.4V55.4C69.9,50,65.6,45.7,60.2,45.7z"/>
		</g>
		<path class="st0" d="M60.2,45.7H40.8c-5.4,0-9.7,4.3-9.7,9.7V70h7.4h24.3h7.2V55.4C69.9,50,65.6,45.7,60.2,45.7z"/>
		<g>
			<line class="st0" x1="39.8" y1="56.3" x2="39.8" y2="70"/>
			<line class="st0" x1="61.1" y1="70" x2="61.1" y2="56.3"/>
		</g>
	</g>
	<line class="st0" x1="50.5" y1="50.3" x2="50.5" y2="54"/>
	<line class="st0" x1="50.5" y1="57.2" x2="50.5" y2="60.9"/>
</g>
<line class="st0" x1="26.1" y1="66.2" x2="26.1" y2="69.5"/>
<line class="st0" x1="19.9" y1="66.2" x2="19.9" y2="69.5"/>
<line class="st0" x1="13.6" y1="66.2" x2="13.6" y2="69.5"/>
</svg>
