<?xml version="1.0" encoding="utf-8"?>
<!-- Generator: Adobe Illustrator 24.1.1, SVG Export Plug-In . SVG Version: 6.00 Build 0)  -->
<svg version="1.1" id="레이어_1" xmlns="http://www.w3.org/2000/svg" xmlns:xlink="http://www.w3.org/1999/xlink" x="0px"
	 y="0px" viewBox="0 0 74 74" style="enable-background:new 0 0 74 74;" xml:space="preserve">
<style type="text/css">
	.st0{fill:none;stroke:#262C32;stroke-width:2.5;}
	.st1{fill:#FFFFFF;stroke:#262C32;stroke-width:2.5;}
	.st2{fill:#FFFFFF;}
	.st3{fill:#FFFFFF;stroke:#262C32;stroke-width:2.5;stroke-linecap:round;stroke-linejoin:round;}
</style>
<g>
	<g>
		<polygon class="st0" points="58.3,47.4 65.2,40.6 65.2,17.2 45.8,17.2 37,26.1 		"/>
		<polygon class="st1" points="65.2,54.4 65.2,40.6 58.3,47.4 		"/>
		<polygon class="st1" points="45.8,17.2 28.1,17.2 37,26.1 		"/>
		<polygon class="st0" points="65.2,54.4 58.3,47.4 38.1,67.6 65.2,67.6 		"/>
		<g>
			<polygon class="st2" points="37,26.1 6.5,56.6 6.5,67.6 8.1,67.6 43.3,32.4 			"/>
			<polygon class="st2" points="58.3,47.4 43.3,32.4 8.1,67.6 38.1,67.6 			"/>
		</g>
		<polygon class="st1" points="37,26.1 6.5,56.6 6.5,67.6 38.1,67.6 58.3,47.4 		"/>
		<polyline class="st0" points="6.5,41.9 6.5,46.8 6.5,51.7 6.5,56.6 10.3,52.8 14.1,49 18,45.1 21.7,41.3 25.5,37.6 29.3,33.8 
			33.2,29.9 37,26.1 35.8,25 34.7,24 33.6,22.9 32.6,21.7 31.4,20.6 30.3,19.5 29.2,18.4 28.1,17.2 25.4,17.2 22.7,17.2 20,17.2 
			17.2,17.2 14.6,17.2 11.8,17.2 9.2,17.2 6.5,17.2 6.5,22.2 6.5,27.1 		"/>
		<line class="st0" x1="6.5" y1="32" x2="6.5" y2="36.9"/>
	</g>
	<path class="st1" d="M37.5,51c0,2.8-2.3,5-5,5s-5-2.3-5-5c0-2.8,2.3-5,5-5C35.3,46.1,37.5,48.2,37.5,51z"/>
</g>
<g>
	<path class="st2" d="M37.2,6.4c1.4-1.4,3.1-2.4,4.9-3C37.9,1.9,33,3,29.7,6.4c-4.8,4.8-4.8,12.6,0,17.4l8.6,8.6l3.8-3.8l-4.9-4.9
		C32.6,18.9,32.6,11.1,37.2,6.4z"/>
	<path class="st2" d="M47,6.4c-1.4-1.4-3.1-2.4-4.9-3c-1.8,0.6-3.5,1.6-4.9,3c-4.8,4.8-4.8,12.6,0,17.4l4.9,4.9l4.9-4.9
		C51.8,18.9,51.8,11.1,47,6.4z"/>
</g>
<path class="st1" d="M47,23.7c4.8-4.8,4.8-12.6,0-17.4s-12.6-4.8-17.4,0s-4.8,12.6,0,17.4l8.6,8.6L47,23.7z"/>
<g>
	<polygon class="st3" points="60.7,34.8 50,40.9 60.7,47.2 71.3,40.9 	"/>
	<g>
		<polygon class="st2" points="60.7,47.2 60.7,59.5 65.2,56.9 65.2,44.5 		"/>
		<polygon class="st2" points="71.3,40.9 65.2,44.5 65.2,56.9 71.3,53.3 		"/>
	</g>
	<polygon class="st3" points="71.3,40.9 60.7,47.2 60.7,59.5 71.3,53.3 71.3,53.3 	"/>
	<polygon class="st3" points="50,40.9 50,53.3 60.7,59.5 60.7,47.2 	"/>
</g>
<path class="st1" d="M42.3,15.5c0,2.2-1.7,3.8-3.8,3.8s-3.8-1.7-3.8-3.8c0-2.2,1.7-3.8,3.8-3.8C40.5,11.5,42.3,13.3,42.3,15.5z"/>
</svg>
