<?xml version="1.0" encoding="utf-8"?>
<!-- Generator: Adobe Illustrator 24.1.1, SVG Export Plug-In . SVG Version: 6.00 Build 0)  -->
<svg version="1.1" id="레이어_1" xmlns="http://www.w3.org/2000/svg" xmlns:xlink="http://www.w3.org/1999/xlink" x="0px"
	 y="0px" viewBox="0 0 74 74" style="enable-background:new 0 0 74 74;" xml:space="preserve">
<style type="text/css">
	.st0{fill:none;stroke:#262C32;stroke-width:2.5;}
	.st1{fill:none;}
	.st2{fill:#FFFFFF;stroke:#262C32;stroke-width:2.5;}
</style>
<g>
	<path class="st0" d="M58.7,24.6v4.5c0,0.9-0.6,1.1-1.3,0.8l-3.5-2.1c-0.8-0.4-1.9-1.1-2.6-1.6L47.8,24c-0.8-0.4-2-0.8-2.9-0.8H44
		c-0.9,0-2.3,0-3,0h-0.9c-0.9,0-1.5-0.6-1.5-1.4c0-0.8,0-2.1,0-2.9c0-0.8,0-1.9,0-2.4c0-0.5,0-1.4,0-1.9c0-0.5,0.6-1,1.5-1H41
		c0.9,0,2.3,0,3,0h0.9c0.9,0,2.1-0.4,2.9-0.8l3.5-2.1c0.8-0.4,1.9-1.1,2.6-1.6l3.5-2.1c0.8-0.4,1.3-0.1,1.3,0.8v4.5"/>
	<g>
		<g>
			<line class="st0" x1="62.2" y1="14.7" x2="68.1" y2="10.7"/>
			<line class="st0" x1="62.2" y1="22.5" x2="68.1" y2="26.5"/>
		</g>
		<line class="st0" x1="57.9" y1="18.6" x2="68.3" y2="18.6"/>
	</g>
	<line class="st0" x1="46.4" y1="23.4" x2="46.4" y2="13.8"/>
</g>
<g>
	<g>
		<g>
			<path class="st0" d="M6,40c-0.3-1.3-0.4-2.6-0.4-4v-1v-1"/>
			<path class="st0" d="M9.1,47.2c-0.8-1-1.4-2.1-1.9-3.4"/>
			<path class="st0" d="M45.4,34.1v1v1c0,1.4-0.1,2.8-0.4,4c-0.3,1.3-0.6,2.5-1.1,3.8c-0.5,1.1-1.1,2.3-1.9,3.4
				c-0.8,1-1.5,2-2.4,2.9c-0.9,0.9-1.9,1.8-2.9,2.4c-1.1,0.6-2.3,1.3-3.5,1.8c-1.1,0.5-2.4,0.9-3.8,1.1c-1.3,0.3-2.6,0.4-4,0.4l0,0
				l0,0l0,0l0,0l0,0l0,0l0,0l0,0c-1.4,0-2.8-0.1-4-0.4c-1.3-0.3-2.5-0.6-3.8-1.1c-1.1-0.5-2.3-1.1-3.4-1.9c-1-0.8-2-1.5-2.9-2.4"/>
			<polyline class="st0" points="25.6,55.8 25.6,59.1 25.6,62.3 25.6,65.6 25.6,68.9 			"/>
			<polyline class="st0" points="16.4,68.6 21.1,68.6 25.6,68.6 30.1,68.6 34.6,68.6 			"/>
		</g>
		<g>
			<path class="st1" d="M24.1,36V20c0-3,1.9-5.6,4.5-6.9c-0.9-0.4-2-0.6-3-0.6c-4.1,0-7.5,3.4-7.5,7.5v16c0,4.1,3.4,7.5,7.5,7.5
				c1.1,0,2.1-0.3,3-0.6C26,41.7,24.1,39,24.1,36z"/>
		</g>
		<path class="st2" d="M33.1,36c0,4.1-3.4,7.5-7.5,7.5l0,0c-4.1,0-7.5-3.4-7.5-7.5V20c0-4.1,3.4-7.5,7.5-7.5l0,0
			c4.1,0,7.5,3.4,7.5,7.5V36z"/>
	</g>
	<line class="st0" x1="23.8" y1="20.9" x2="27.4" y2="20.9"/>
	<line class="st0" x1="23.8" y1="27.5" x2="27.4" y2="27.5"/>
	<line class="st0" x1="23.8" y1="34.1" x2="27.4" y2="34.1"/>
</g>
<path class="st0" d="M58.7,29.3"/>
<line class="st0" x1="44.3" y1="63" x2="44.3" y2="67.2"/>
<line class="st0" x1="50.5" y1="63" x2="50.5" y2="67.2"/>
<line class="st0" x1="56.8" y1="63" x2="56.8" y2="67.2"/>
</svg>
